<svg xmlns="http://www.w3.org/2000/svg" viewBox="0 0 64 64" role="img" aria-labelledby="title">
  <title>CD</title>
  <defs>
    <linearGradient id="g" x1="0%" y1="0%" x2="100%" y2="100%">
      <stop offset="0%" stop-color="#0d9488"/>
      <stop offset="100%" stop-color="#132238"/>
    </linearGradient>
  </defs>
  <rect width="64" height="64" rx="18" fill="url(#g)"/>
  <path d="M23 21h8.8c4.6 0 7.2 2.5 7.2 6.7s-2.6 6.8-7.2 6.8H27v8.5h-4V21Zm4 10.3h4.3c2.4 0 3.7-1.2 3.7-3.6 0-2.3-1.3-3.5-3.7-3.5H27v7.1Z" fill="#fff"/>
  <path d="M43 21h-6.8v22H43c6.1 0 10-4.3 10-11s-3.9-11-10-11Zm0 18.5h-2.8V24.5H43c3.8 0 6 2.7 6 7.5s-2.2 7.5-6 7.5Z" fill="#fff"/>
</svg>
